<svg xmlns="http://www.w3.org/2000/svg" version="1.1" xmlns:xlink="http://www.w3.org/1999/xlink" xmlns:svgjs="http://svgjs.com/svgjs" width="1440" height="560" preserveAspectRatio="none" viewBox="0 0 1440 560">
    <g mask="url(&quot;#SvgjsMask1000&quot;)" fill="none">
        <rect width="1440" height="560" x="0" y="0" fill="#0e2a47"></rect>
        <path d="M -84.47586736859114,123 C 11.52,184.2 203.52,437 395.52413263140886,429 C 587.52,421 683.52,100.8 875.5241326314089,83 C 1067.52,65.2 1163.52,344 1355.524132631409,340 C 1547.52,336 1818.63,47.4 1835.524132631409,63 C 1852.42,78.6 1519.1,347 1440,418" stroke="rgba(51, 121, 194, 0.58)" stroke-width="2"></path>
        <path d="M -758.1744358645232,281 C -662.17,242.6 -470.17,50.8 -278.17443586452316,89 C -86.17,127.2 9.83,466.4 201.82556413547684,472 C 393.83,477.6 489.83,132.8 681.8255641354768,117 C 873.83,101.2 1010.19,363.4 1161.8255641354767,393 C 1313.46,422.6 1384.37,290.6 1440,265" stroke="rgba(51, 121, 194, 0.58)" stroke-width="2"></path>
        <path d="M -45.73202727452599,320 C 50.27,306.6 242.27,222.2 434.267972725474,253 C 626.27,283.8 722.27,472.6 914.267972725474,474 C 1106.27,475.4 1202.27,257.4 1394.267972725474,260 C 1586.27,262.6 1865.12,494.6 1874.267972725474,487 C 1883.41,479.4 1526.85,275 1440,222" stroke="rgba(51, 121, 194, 0.58)" stroke-width="2"></path>
        <path d="M -33.085801608263694,154 C 62.91,183.6 254.91,312 446.9141983917363,302 C 638.91,292 734.91,94.8 926.9141983917364,104 C 1118.91,113.2 1214.91,354.2 1406.9141983917364,348 C 1598.91,341.8 1880.3,84.2 1886.9141983917364,73 C 1893.53,61.8 1529.38,248.2 1440,292" stroke="rgba(51, 121, 194, 0.58)" stroke-width="2"></path>
    </g>
    <defs>
        <mask id="SvgjsMask1000">
            <rect width="1440" height="560" fill="#ffffff"></rect>
        </mask>
    </defs>
</svg>